<svg width="189" height="193" viewBox="0 0 189 193" fill="none" xmlns="http://www.w3.org/2000/svg">
<g filter="url(#filter0_d)">
<path d="M87.2493 112.722H142.741C158.188 112.722 170.356 95.8323 170.356 80.3081V31.1741C170.356 16.1051 157.735 4.7844 142.657 2.27038C133.115 0.68006 123.255 -0.0436755 113.755 0.00203402C104.259 0.0458391 95.463 0.85528 87.4834 2.27038C63.971 6.42424 59.9783 15.1281 59.9783 31.1741V59.3941H115.167H38.6183C22.4726 59.3941 8.33282 69.1226 3.91199 87.6026C-1.19015 108.781 -1.41661 121.731 3.91199 143.844C7.86086 160.304 17.2906 171.764 33.4381 171.764H52.366V143.816C52.366 125.462 68.4051 112.722 87.2493 112.722Z" transform="translate(22.811 22.6574) scale(0.264583)" fill="#9FDDFF"/>
<path fill-rule="evenodd" clip-rule="evenodd" d="M120.701 0.00210799C130.566 -0.0452843 140.822 0.705333 150.782 2.36531C168.168 5.26415 184.312 18.702 184.312 38.1519V87.2859C184.312 96.761 180.647 106.388 174.749 113.696C168.849 121.009 160.111 126.677 149.719 126.677H94.2271C78.2183 126.677 66.3215 137.238 66.3215 150.794V185.719H40.4158C30.5078 185.719 22.3184 182.129 16.1177 175.861C10.0729 169.751 6.26797 161.466 4.10503 152.452C1.36292 141.071 -0.030242 131.72 0.000497813 122.328C0.0312287 112.939 1.4844 103.83 4.10476 92.9515C9.2992 71.2475 26.3146 59.3941 45.596 59.3941H59.9783V38.1519C59.9783 29.8253 60.9328 21.4574 66.5421 14.7601C72.0923 8.1333 81.0115 4.53892 93.2427 2.37758M73.9338 59.3941H122.145V73.3496H45.596C32.5877 73.3496 21.3247 80.9512 17.676 96.2038L17.6747 96.2092L17.6734 96.2146C15.1924 106.513 13.9818 114.466 13.9559 122.373C13.93 130.278 15.0875 138.457 17.6733 149.188L17.6749 149.194C19.4609 156.639 22.3452 162.313 26.0389 166.047C29.5771 169.623 34.1763 171.764 40.4158 171.764H52.366V150.794C52.366 127.641 72.5474 112.722 94.2271 112.722H149.719C154.773 112.722 159.844 109.945 163.889 104.933C167.938 99.915 170.356 93.3349 170.356 87.2859V38.1519C170.356 27.4639 161.258 18.2603 148.488 16.1309M120.699 0.0021144C110.832 0.0477085 101.64 0.888748 93.2472 2.37678C93.2463 2.37694 93.2455 2.37709 93.2446 2.37724M148.488 16.1309C139.364 14.6104 129.901 13.9135 120.767 13.9574L120.765 13.9574C111.643 13.9995 103.245 14.7771 95.6796 16.1186L95.6751 16.1194C84.3962 18.112 79.5643 20.9465 77.2408 23.7207C74.9756 26.4253 73.9338 30.4324 73.9338 38.1519V59.3941" transform="translate(20.9648 20.8112) scale(0.264583)" fill="black"/>
<path d="M83.1071 59.0416H27.6155C12.1682 59.0416 0 75.9313 0 91.4554V140.589C0 155.658 12.6212 166.979 27.6992 169.493C37.2412 171.083 47.101 171.807 56.6011 171.761C66.0975 171.718 74.8934 170.908 82.873 169.493C106.385 165.339 110.378 156.635 110.378 140.589V112.369H55.1891H131.738C147.884 112.369 162.024 102.641 166.444 84.1609C171.547 62.9821 171.773 50.033 166.444 27.919C162.496 11.4598 153.066 0 136.918 0H117.99V27.9476C117.99 46.3019 101.951 59.0416 83.1071 59.0416Z" transform="translate(36.6665 36.5111) scale(0.264583)" fill="#F7F991"/>
<path fill-rule="evenodd" clip-rule="evenodd" d="M120.701 0.00210799C130.566 -0.0452843 140.822 0.705333 150.782 2.36531C168.168 5.26415 184.312 18.702 184.312 38.1519V87.2859C184.312 96.761 180.647 106.388 174.749 113.696C168.849 121.009 160.111 126.677 149.719 126.677H94.2271C78.2183 126.677 66.3215 137.238 66.3215 150.794V185.719H40.4158C30.5078 185.719 22.3184 182.129 16.1177 175.861C10.0729 169.751 6.26797 161.466 4.10503 152.452C1.36292 141.071 -0.030242 131.72 0.000497813 122.328C0.0312287 112.939 1.4844 103.83 4.10476 92.9515C9.2992 71.2475 26.3146 59.3941 45.596 59.3941H59.9783V38.1519C59.9783 29.8253 60.9328 21.4574 66.5421 14.7601C72.0923 8.1333 81.0115 4.53892 93.2427 2.37758M73.9338 59.3941H122.145V73.3496H45.596C32.5877 73.3496 21.3247 80.9512 17.676 96.2038L17.6747 96.2092L17.6734 96.2146C15.1924 106.513 13.9818 114.466 13.9559 122.373C13.93 130.278 15.0875 138.457 17.6733 149.188L17.6749 149.194C19.4609 156.639 22.3452 162.313 26.0389 166.047C29.5771 169.623 34.1763 171.764 40.4158 171.764H52.366V150.794C52.366 127.641 72.5474 112.722 94.2271 112.722H149.719C154.773 112.722 159.844 109.945 163.889 104.933C167.938 99.915 170.356 93.3349 170.356 87.2859V38.1519C170.356 27.4639 161.258 18.2603 148.488 16.1309M120.699 0.0021144C110.832 0.0477085 101.64 0.888748 93.2472 2.37678C93.2463 2.37694 93.2455 2.37709 93.2446 2.37724M148.488 16.1309C139.364 14.6104 129.901 13.9135 120.767 13.9574L120.765 13.9574C111.643 13.9995 103.245 14.7771 95.6796 16.1186L95.6751 16.1194C84.3962 18.112 79.5643 20.9465 77.2408 23.7207C74.9756 26.4253 73.9338 30.4324 73.9338 38.1519V59.3941" transform="translate(83.5859 83.8031) scale(0.264583) rotate(-180)" fill="black"/>
</g>
<g filter="url(#filter1_d)">
<path fill-rule="evenodd" clip-rule="evenodd" d="M0 0H104.459L51.2976 156.545L0 0Z" transform="translate(78.7837 125.278) scale(0.264583)" fill="#FF5252"/>
<path fill-rule="evenodd" clip-rule="evenodd" d="M1.32756 2.88338C2.63999 1.07223 4.74111 0 6.97779 0H111.436C113.686 0 115.798 1.08483 117.108 2.9137C118.419 4.74257 118.767 7.09107 118.043 9.22145L64.8825 165.767C63.917 168.61 61.2407 170.517 58.238 170.501C55.2353 170.485 52.5796 168.549 51.6445 165.696L0.346977 9.15055C-0.34951 7.02508 0.0151339 4.69454 1.32756 2.88338ZM16.6071 13.9555L58.3934 141.475L101.698 13.9555H16.6071Z" transform="translate(76.937 123.431) scale(0.264583)" fill="black"/>
<path fill-rule="evenodd" clip-rule="evenodd" d="M52.5801 0H139.991L0 156.621L52.5801 0Z" transform="translate(92.3589 125.098) scale(0.264583)" fill="#FF5252"/>
<path fill-rule="evenodd" clip-rule="evenodd" d="M52.9437 4.757C53.8978 1.91496 56.5607 0 59.5586 0H146.97C149.721 0 152.216 1.61667 153.339 4.12802C154.463 6.63937 154.006 9.57654 152.172 11.6278L12.181 168.248C9.97375 170.718 6.33462 171.295 3.4713 169.631C0.607981 167.966 -0.690481 164.518 0.363633 161.378L52.9437 4.757ZM64.5765 13.9555L24.396 133.641L131.374 13.9555H64.5765Z" transform="translate(90.5122 123.252) scale(0.264583)" fill="black"/>
<path fill-rule="evenodd" clip-rule="evenodd" d="M87.4113 0H0L138.181 156.016L87.4113 0Z" transform="translate(55.7983 125.258) scale(0.264583)" fill="#FF5252"/>
<path fill-rule="evenodd" clip-rule="evenodd" d="M0.615053 4.11355C1.74201 1.61 4.23235 0 6.97785 0H94.3892C97.411 0 100.089 1.94507 101.024 4.81855L151.794 160.835C152.817 163.978 151.493 167.408 148.624 169.05C145.754 170.692 142.127 170.095 139.935 167.62L1.75432 11.6041C-0.0660124 9.54883 -0.511908 6.6171 0.615053 4.11355ZM22.4789 13.9555L128.145 133.26L89.3219 13.9555H22.4789Z" transform="translate(53.9526 123.411) scale(0.264583)" fill="black"/>
<path fill-rule="evenodd" clip-rule="evenodd" d="M0 0L42.2534 63.4659L92.354 0H0Z" transform="translate(67.9233 108.644) scale(0.264583)" fill="#FF5252"/>
<path fill-rule="evenodd" clip-rule="evenodd" d="M0.826681 3.68332C2.04128 1.41552 4.40517 0 6.97774 0H99.3317C102.006 0 104.445 1.52826 105.611 3.93466C106.777 6.34106 106.465 9.2023 104.809 11.3012L54.7081 74.7671C53.3233 76.5213 51.1821 77.506 48.9491 77.4157C46.7161 77.3253 44.6615 76.1709 43.4229 74.3106L1.16951 10.8447C-0.256167 8.70326 -0.387916 5.95111 0.826681 3.68332ZM20.006 13.9555L49.7114 58.5739L84.9335 13.9555H20.006Z" transform="translate(66.0771 106.798) scale(0.264583)" fill="black"/>
<path fill-rule="evenodd" clip-rule="evenodd" d="M0 0L51.9114 63.4659L91.7503 0H0Z" transform="translate(92.3589 108.644) scale(0.264583)" fill="#FF5252"/>
<path fill-rule="evenodd" clip-rule="evenodd" d="M0.672459 3.9892C1.82712 1.55305 4.28187 0 6.97781 0H98.7282C101.267 0 103.606 1.37917 104.834 3.60112C106.063 5.82306 105.988 8.53703 104.638 10.6875L64.799 74.1534C63.6047 76.0561 61.5673 77.2674 59.3251 77.4077C57.083 77.5481 54.9104 76.6003 53.4881 74.8614L1.5767 11.3955C-0.130167 9.30873 -0.482201 6.42536 0.672459 3.9892ZM21.6998 13.9555L58.1421 58.5092L86.1095 13.9555H21.6998Z" transform="translate(90.5127 106.798) scale(0.264583)" fill="black"/>
<path fill-rule="evenodd" clip-rule="evenodd" d="M0 63.3937L39.9056 0L88.2603 63.3937H0Z" transform="translate(106.059 108.485) scale(0.264583)" fill="#FF5252"/>
<path fill-rule="evenodd" clip-rule="evenodd" d="M46.5701 0.00705006C48.8546 -0.0955956 51.0444 0.927673 52.4313 2.74591L100.786 66.1396C102.395 68.2491 102.669 71.0887 101.492 73.4666C100.315 75.8445 97.8912 77.3492 95.238 77.3492H6.97774C4.43713 77.3492 2.0973 75.9683 0.869275 73.7442C-0.358751 71.5201 -0.280878 68.8043 1.07257 66.6542L40.9782 3.26052C42.1964 1.32523 44.2856 0.109696 46.5701 0.00705006ZM47.4326 19.2033L19.6153 63.3937H81.1397L47.4326 19.2033Z" transform="translate(104.212 106.638) scale(0.264583)" fill="black"/>
<path fill-rule="evenodd" clip-rule="evenodd" d="M0 62.8615L46.4953 0L89.3359 62.8615H0Z" transform="translate(55.626 108.644) scale(0.264583)" fill="#FF5252"/>
<path fill-rule="evenodd" clip-rule="evenodd" d="M53.6078 0.00130546C55.8676 0.0449633 57.9662 1.18045 59.2391 3.04814L102.08 65.9096C103.536 68.0467 103.691 70.8139 102.482 73.1003C101.274 75.3866 98.8998 76.8169 96.3136 76.8169H6.97777C4.34317 76.8169 1.93319 75.333 0.74712 72.9805C-0.438951 70.628 -0.198865 67.808 1.36783 65.6898L47.8631 2.82836C49.2071 1.01123 51.3481 -0.0423524 53.6078 0.00130546ZM20.8178 62.8615H83.1142L53.2402 19.0265L20.8178 62.8615Z" transform="translate(53.7798 106.798) scale(0.264583)" fill="black"/>
<path fill-rule="evenodd" clip-rule="evenodd" d="M0 63.4698L50.6822 0L103.223 63.4698H0Z" transform="translate(78.9448 108.485) scale(0.264583)" fill="#FF5252"/>
<path fill-rule="evenodd" clip-rule="evenodd" d="M57.5985 0.000271664C59.6988 -0.0182416 61.6957 0.910312 63.035 2.52825L115.576 65.9981C117.3 68.0805 117.666 70.9713 116.515 73.4175C115.364 75.8638 112.904 77.4253 110.201 77.4253H6.9778C4.29666 77.4253 1.85264 75.8891 0.690107 73.4731C-0.472423 71.0571 -0.14783 68.1886 1.52518 66.0935L52.2074 2.62369C53.518 0.982395 55.4982 0.0187849 57.5985 0.000271664ZM57.7575 18.0381L21.4791 63.4698H95.3663L57.7575 18.0381Z" transform="translate(77.0986 106.638) scale(0.264583)" fill="black"/>
</g>
<g filter="url(#filter2_d)">
<path d="M29.5077 66.5034C28.6171 66.5034 27.7326 66.2698 26.9519 65.8202L2.55586 51.7349C0.975988 50.8199 3.89388e-06 49.1119 3.89388e-06 47.288V19.1675C3.89388e-06 17.3375 0.975988 15.6295 2.55586 14.7267L26.9494 0.654233C28.4927 -0.218069 30.5423 -0.218069 32.0733 0.654233L56.4364 14.7328C58.0102 15.6417 58.9923 17.3436 58.9923 19.1736V47.2941C58.9923 49.118 58.0102 50.8199 56.4364 51.7349L32.0733 65.8074C31.2926 66.2588 30.4081 66.4906 29.5053 66.4906L29.5077 66.5034Z" transform="translate(107.617 19.068)" fill="#B6E289"/>
<path d="M29.5077 66.5034C28.6171 66.5034 27.7326 66.2698 26.9519 65.8202L2.55586 51.7349C0.975988 50.8199 3.89388e-06 49.1119 3.89388e-06 47.288V19.1675C3.89388e-06 17.3375 0.975988 15.6295 2.55586 14.7267L26.9494 0.654233C28.4927 -0.218069 30.5423 -0.218069 32.0733 0.654233L56.4364 14.7328C58.0102 15.6417 58.9923 17.3436 58.9923 19.1736V47.2941C58.9923 49.118 58.0102 50.8199 56.4364 51.7349L32.0733 65.8074C31.2926 66.2588 30.4081 66.4906 29.5053 66.4906L29.5077 66.5034Z" transform="translate(107.617 19.068)" stroke="black"/>
<path d="M31.8096 0.000402019C30.5372 0.00041931 29.2653 0.326237 28.115 0.976418L28.1048 0.979875L3.71145 15.0525C3.71042 15.0531 3.70989 15.0538 3.7091 15.0547C3.70879 15.0551 3.70843 15.0555 3.70799 15.056L3.70124 15.0595C1.3992 16.3799 0 18.8446 0 21.486V49.6043C0 52.2465 1.40144 54.7078 3.698 56.0378H3.70146L28.0981 70.124H28.1015C29.2336 70.7758 30.5078 71.1135 31.7995 71.1135V71.1032C33.0949 71.1032 34.3784 70.767 35.5144 70.1103L59.8807 56.0376V56.0341C62.1644 54.7064 63.5787 52.258 63.5787 49.6108V21.4924C63.5787 18.8427 62.1658 16.3883 59.8774 15.0657L35.5077 0.982843L35.5009 0.979387C34.3529 0.325315 33.0821 6.25621e-06 31.8097 6.25621e-06L31.8096 0.000402019ZM33.228 4.96485H33.2315L57.5809 19.0375C58.4387 19.533 58.9925 20.4834 58.9925 21.4927V49.6111C58.9925 50.6116 58.4414 51.5674 57.5775 52.0697L33.2179 66.139C32.7924 66.385 32.3097 66.5138 31.7995 66.5138V66.5276C31.3101 66.5276 30.8173 66.3968 30.3879 66.1494L5.99786 52.0663C5.13467 51.5664 4.5862 50.61 4.5862 49.6043V21.486C4.5862 20.4715 5.13654 19.5239 5.98773 19.0375L5.99118 19.0341L30.371 4.96814C31.156 4.52442 32.4616 4.52982 33.2281 4.96467L33.228 4.96485Z" transform="translate(105.324 16.7504)" fill="black"/>
<path d="M31.8096 0.000402019C30.5372 0.00041931 29.2653 0.326237 28.115 0.976418L28.1048 0.979875L3.71145 15.0525C3.71042 15.0531 3.70989 15.0538 3.7091 15.0547C3.70879 15.0551 3.70843 15.0555 3.70799 15.056L3.70124 15.0595C1.3992 16.3799 0 18.8446 0 21.486V49.6043C0 52.2465 1.40144 54.7078 3.698 56.0378H3.70146L28.0981 70.124H28.1015C29.2336 70.7758 30.5078 71.1135 31.7995 71.1135V71.1032C33.0949 71.1032 34.3784 70.767 35.5144 70.1103L59.8807 56.0376V56.0341C62.1644 54.7064 63.5787 52.258 63.5787 49.6108V21.4924C63.5787 18.8427 62.1658 16.3883 59.8774 15.0657L35.5077 0.982843L35.5009 0.979387C34.3529 0.325315 33.0821 6.25621e-06 31.8097 6.25621e-06L31.8096 0.000402019ZM33.228 4.96485H33.2315L57.5809 19.0375C58.4387 19.533 58.9925 20.4834 58.9925 21.4927V49.6111C58.9925 50.6116 58.4414 51.5674 57.5775 52.0697L33.2179 66.139C32.7924 66.385 32.3097 66.5138 31.7995 66.5138V66.5276C31.3101 66.5276 30.8173 66.3968 30.3879 66.1494L5.99786 52.0663C5.13467 51.5664 4.5862 50.61 4.5862 49.6043V21.486C4.5862 20.4715 5.13654 19.5239 5.98773 19.0375L5.99118 19.0341L30.371 4.96814C31.156 4.52442 32.4616 4.52982 33.2281 4.96467L33.228 4.96485Z" transform="translate(105.324 16.7504)" stroke="black"/>
<path d="M12.8983 26.9878C2.23561 26.9878 3.55025e-06 22.0933 3.55025e-06 17.988C3.55025e-06 17.5976 0.314749 17.2865 0.705754 17.2865H3.85332C4.20101 17.2865 4.49381 17.5397 4.54871 17.8831C5.02451 21.0905 6.43968 22.7081 12.8873 22.7081C18.0234 22.7081 20.2072 21.5479 20.2072 18.8243C20.2072 17.2567 19.585 16.0916 11.6063 15.3108C4.933 14.652 0.809456 13.1819 0.809456 7.84449C0.809456 2.92796 4.9574 0 11.9052 0C19.707 0 23.5743 2.70837 24.0623 8.52768C24.0807 8.72898 24.0075 8.92418 23.8732 9.07059C23.7391 9.21082 23.5499 9.29626 23.3547 9.29626H20.1889C19.8595 9.29626 19.5728 9.06448 19.5057 8.74727C18.7432 5.37403 16.901 4.29434 11.893 4.29434C6.28718 4.29434 5.63449 6.24631 5.63449 7.71028C5.63449 9.48536 6.40308 10.0038 13.967 11.0042C21.4577 11.9985 25.0139 13.4015 25.0139 18.6657C25.0139 23.9727 20.5854 27.0165 12.8629 27.0165L12.8983 26.9878Z" transform="translate(131.765 41.6145)" fill="black"/>
<path d="M12.8983 26.9878C2.23561 26.9878 3.55025e-06 22.0933 3.55025e-06 17.988C3.55025e-06 17.5976 0.314749 17.2865 0.705754 17.2865H3.85332C4.20101 17.2865 4.49381 17.5397 4.54871 17.8831C5.02451 21.0905 6.43968 22.7081 12.8873 22.7081C18.0234 22.7081 20.2072 21.5479 20.2072 18.8243C20.2072 17.2567 19.585 16.0916 11.6063 15.3108C4.933 14.652 0.809456 13.1819 0.809456 7.84449C0.809456 2.92796 4.9574 0 11.9052 0C19.707 0 23.5743 2.70837 24.0623 8.52768C24.0807 8.72898 24.0075 8.92418 23.8732 9.07059C23.7391 9.21082 23.5499 9.29626 23.3547 9.29626H20.1889C19.8595 9.29626 19.5728 9.06448 19.5057 8.74727C18.7432 5.37403 16.901 4.29434 11.893 4.29434C6.28718 4.29434 5.63449 6.24631 5.63449 7.71028C5.63449 9.48536 6.40308 10.0038 13.967 11.0042C21.4577 11.9985 25.0139 13.4015 25.0139 18.6657C25.0139 23.9727 20.5854 27.0165 12.8629 27.0165L12.8983 26.9878Z" transform="translate(131.765 41.6145)" stroke="black"/>
<path d="M0.72433 31.8995C-0.490773 31.22 0.102136 30.9796 0.502901 30.8411C2.72964 29.896 3.50845 29.3471 4.29853 29.3303C5.06923 29.314 5.85066 29.804 7.99728 30.9266C11.6206 32.7382 13.8349 30.6032 13.8349 28.4561V0.701489C13.8349 0.304987 14.146 0 14.5425 0H17.629C18.0133 0 18.3305 0.304987 18.3305 0.701489V28.4683C18.3305 33.2994 15.6954 36.0749 11.1143 36.0749H11.1143C9.70524 36.0749 8.59505 36.0749 5.49631 34.5499L0.72433 31.8995Z" transform="translate(111.081 42.3452)" fill="black"/>
<path d="M0.72433 31.8995C-0.490773 31.22 0.102136 30.9796 0.502901 30.8411C2.72964 29.896 3.50845 29.3471 4.29853 29.3303C5.06923 29.314 5.85066 29.804 7.99728 30.9266C11.6206 32.7382 13.8349 30.6032 13.8349 28.4561V0.701489C13.8349 0.304987 14.146 0 14.5425 0H17.629C18.0133 0 18.3305 0.304987 18.3305 0.701489V28.4683C18.3305 33.2994 15.6954 36.0749 11.1143 36.0749H11.1143C9.70524 36.0749 8.59505 36.0749 5.49631 34.5499L0.72433 31.8995Z" transform="translate(111.081 42.3452)" stroke="black"/>
</g>
<defs>
<filter id="filter0_d" x="0.964844" y="4.81125" width="102.621" height="102.992" filterUnits="userSpaceOnUse" color-interpolation-filters="sRGB">
<feFlood flood-opacity="0" result="BackgroundImageFix"/>
<feColorMatrix in="SourceAlpha" type="matrix" values="0 0 0 0 0 0 0 0 0 0 0 0 0 0 0 0 0 0 255 0"/>
<feOffset dy="4"/>
<feGaussianBlur stdDeviation="10"/>
<feColorMatrix type="matrix" values="0 0 0 0 0 0 0 0 0 0 0 0 0 0 0 0 0 0 0.25 0"/>
<feBlend mode="normal" in2="BackgroundImageFix" result="effect1_dropShadow"/>
<feBlend mode="normal" in="SourceGraphic" in2="effect1_dropShadow" result="shape"/>
</filter>
<filter id="filter1_d" x="33.7798" y="90.6383" width="117.477" height="101.905" filterUnits="userSpaceOnUse" color-interpolation-filters="sRGB">
<feFlood flood-opacity="0" result="BackgroundImageFix"/>
<feColorMatrix in="SourceAlpha" type="matrix" values="0 0 0 0 0 0 0 0 0 0 0 0 0 0 0 0 0 0 255 0"/>
<feOffset dy="4"/>
<feGaussianBlur stdDeviation="10"/>
<feColorMatrix type="matrix" values="0 0 0 0 0 0 0 0 0 0 0 0 0 0 0 0 0 0 0.25 0"/>
<feBlend mode="normal" in2="BackgroundImageFix" result="effect1_dropShadow"/>
<feBlend mode="normal" in="SourceGraphic" in2="effect1_dropShadow" result="shape"/>
</filter>
<filter id="filter2_d" x="85.3242" y="0.750427" width="103.579" height="111.114" filterUnits="userSpaceOnUse" color-interpolation-filters="sRGB">
<feFlood flood-opacity="0" result="BackgroundImageFix"/>
<feColorMatrix in="SourceAlpha" type="matrix" values="0 0 0 0 0 0 0 0 0 0 0 0 0 0 0 0 0 0 255 0"/>
<feOffset dy="4"/>
<feGaussianBlur stdDeviation="10"/>
<feColorMatrix type="matrix" values="0 0 0 0 0 0 0 0 0 0 0 0 0 0 0 0 0 0 0.25 0"/>
<feBlend mode="normal" in2="BackgroundImageFix" result="effect1_dropShadow"/>
<feBlend mode="normal" in="SourceGraphic" in2="effect1_dropShadow" result="shape"/>
</filter>
</defs>
</svg>
